<svg width="36" height="36" viewBox="0 0 36 36" fill="none" xmlns="http://www.w3.org/2000/svg">
<g clip-path="url(#clip0)">
<ellipse rx="18" ry="23.5" transform="matrix(-1 0 0 1 18 19.5)" fill="#111111"/>
<path d="M8.30772 1.22222L8.8051 2.62551H10.4147L9.1125 3.4928L9.60989 4.89609L8.30772 4.02881L7.00555 4.89609L7.50293 3.4928L6.20076 2.62551H7.81033L8.30772 1.22222Z" fill="white" fill-opacity="0.85"/>
<path d="M14.1993 20.3586C14.1993 26.7953 7.87308 32.5556 11.8182 32.5556C15.7634 32.5556 27.6923 26.7953 27.6923 20.3586C27.6923 13.9219 26.0815 11.0864 22.1364 11.0864C18.1912 11.0864 14.1993 13.9219 14.1993 20.3586Z" fill="#E8E8E8"/>
<path d="M8.43784 22.3091C8.43784 28.554 3.18379 34.2963 6.82121 34.2963C10.4586 34.2963 21.6101 28.554 21.6101 22.3091C21.6101 16.0643 23.601 11.0864 19.9636 11.0864C16.3262 11.0864 8.43784 16.0643 8.43784 22.3091Z" fill="white" fill-opacity="0.95"/>
<path d="M22.1538 12.8272C22.1538 15.9218 21.6 17.8911 21.6 20.9858C21.6 24.0804 21.3785 24.5868 19.0523 27.6815C17.0576 30.3351 14.4 31.3951 14.4 31.3951" stroke="#686868" stroke-width="0.3"/>
<path d="M16.2831 30.8148V32.749M16.2831 32.749L13.8462 33.7161M16.2831 32.749L19.9385 33.7161" stroke="#DDDDDD" stroke-width="0.5"/>
<path d="M17.5015 30.8148V32.749M17.5015 32.749L14.4 33.7161M17.5015 32.749L22.1538 33.7161" stroke="#DDDDDD" stroke-width="0.5"/>
<path d="M13.8462 7.94249C13.8462 10.6402 17.9828 12.8272 22.1539 12.8272C26.325 12.8272 30.4615 10.6402 30.4615 7.94249C30.4615 6.54686 29.9013 4.79419 29.1173 3.60461C28.7761 3.08688 29.2652 1.31484 28.9511 1.22607C28.6369 1.13729 26.714 2.61164 26.2051 2.98476L22.1539 3.6684L17.6224 2.98476C16.9623 2.61164 14.9156 1.13729 14.6014 1.22607C14.2872 1.31484 14.8458 3.08688 14.6014 3.60461C14.0398 4.79419 13.8462 6.54686 13.8462 7.94249Z" fill="#E8E8E8"/>
<path d="M22.1539 12.2469L22.9847 9.92593H21.3231L22.1539 12.2469Z" fill="white"/>
<ellipse rx="3.04615" ry="3.19136" transform="matrix(-1 0 0 1 19.1077 7.89506)" fill="white"/>
<ellipse rx="2.49231" ry="2.61111" transform="matrix(-1 0 0 1 19.1077 7.89506)" fill="#111111"/>
<path d="M20.4923 8.18518C20.4923 9.14657 19.9964 9.92592 19.3846 9.92592C18.7728 9.92592 18.2769 9.14657 18.2769 8.18518C18.2769 7.2238 18.7728 6.44444 19.3846 6.44444C19.9964 6.44444 20.4923 7.2238 20.4923 8.18518Z" fill="white"/>
<ellipse rx="3.04615" ry="3.19136" transform="matrix(-1 0 0 1 25.2 7.89506)" fill="white"/>
<ellipse rx="2.49231" ry="2.61111" transform="matrix(-1 0 0 1 25.2 7.89506)" fill="#111111"/>
<path d="M26.5846 8.18518C26.5846 9.14657 26.0887 9.92592 25.4769 9.92592C24.8652 9.92592 24.3692 9.14657 24.3692 8.18518C24.3692 7.2238 24.8652 6.44444 25.4769 6.44444C26.0887 6.44444 26.5846 7.2238 26.5846 8.18518Z" fill="white"/>
</g>
<defs>
<clipPath id="clip0">
<rect width="36" height="36" fill="white"/>
</clipPath>
</defs>
</svg>
