<svg width="36" height="36" viewBox="0 0 36 36" fill="none" xmlns="http://www.w3.org/2000/svg">
<g clip-path="url(#clip0)">
<ellipse rx="16" ry="20.5" transform="matrix(-1 0 0 1 18 20.5)" fill="#111111"/>
<path d="M32.2154 19L32.7128 20.2241H34.3223L33.0202 20.9807L33.5176 22.2049L32.2154 21.4483L30.9132 22.2049L31.4106 20.9807L30.1084 20.2241H31.718L32.2154 19Z" fill="white" fill-opacity="0.85"/>
<path d="M24.7666 22.1841C28.7131 18.7288 34.9563 19.6039 33.1463 16.7985C31.3363 13.9931 22.1586 8.56943 18.2121 12.0247C14.2657 15.48 10.1293 16.6987 11.9393 19.5042C13.7493 22.3096 20.8202 25.6394 24.7666 22.1841Z" fill="white" fill-opacity="0.95"/>
<path d="M21.4028 23.504C21.4028 23.504 22.7789 21.6337 22.7789 19.4963C22.7789 17.3588 22.7616 15.9018 22.3202 14.4199C21.9778 13.2703 21.1735 12.0152 21.1735 12.0152" stroke="#686868" stroke-width="0.3"/>
<path d="M11.6039 19.4855C11.6039 25.4132 6.36434 30.7179 9.63178 30.7179C12.8992 30.7179 22.7789 25.4132 22.7789 19.4855C22.7789 13.5578 21.4449 10.9465 18.1774 10.9465C14.91 10.9465 11.6039 13.5578 11.6039 19.4855Z" fill="#E8E8E8"/>
<path d="M6.83208 21.2818C6.83208 27.0328 2.48059 32.321 5.49316 32.321C8.50573 32.321 17.7416 27.0328 17.7416 21.2818C17.7416 15.5307 19.3904 10.9465 16.3779 10.9465C13.3653 10.9465 6.83208 15.5307 6.83208 21.2818Z" fill="white" fill-opacity="0.95"/>
<path d="M18.1919 12.5496C18.1919 15.3995 17.7332 17.2131 17.7332 20.063C17.7332 22.913 17.5497 23.3793 15.6231 26.2293C13.9711 28.6731 10.6233 30.4507 10.6233 30.4507" stroke="#686868" stroke-width="0.3"/>
<path d="M13.3296 29.1148V30.896M13.3296 30.896L11.3113 31.7866M13.3296 30.896L16.3571 31.7866" stroke="#DDDDDD" stroke-width="0.5"/>
<path d="M14.3388 29.1148V30.896M14.3388 30.896L11.77 31.7866M14.3388 30.896L18.1919 31.7866" stroke="#DDDDDD" stroke-width="0.5"/>
<path d="M11.0622 10.9509C11.6988 13.3221 15.4846 14.053 18.7817 12.8518C22.0788 11.6506 24.8326 8.53713 24.196 6.16598C23.8667 4.93931 23.0103 3.56016 22.1099 2.74036C21.718 2.38357 21.6865 0.685191 21.4172 0.697635C21.148 0.710078 19.9759 2.55971 19.6616 3.03422L16.6206 4.80178L12.8774 5.50589C12.2676 5.36802 10.3018 4.66159 10.0744 4.83009C9.84702 4.9986 10.7067 6.39524 10.6357 6.92069C10.4724 8.12801 10.7329 9.72426 11.0622 10.9509Z" fill="#E8E8E8"/>
<path d="M18.6448 12.3418L18.7538 10.0625L17.4405 10.541L18.6448 12.3418Z" fill="white"/>
<ellipse rx="2.56269" ry="2.90434" transform="matrix(-0.939586 0.342313 0.25928 0.965802 15.2101 9.39401)" fill="white"/>
<ellipse rx="2.09674" ry="2.37628" transform="matrix(-0.939586 0.342313 0.25928 0.965802 15.2101 9.39401)" fill="#111111"/>
<path d="M16.373 9.25027C16.5999 10.0953 16.3918 10.9231 15.9082 11.0993C15.4246 11.2755 14.8487 10.7333 14.6219 9.88826C14.395 9.04326 14.6031 8.21543 15.0867 8.03926C15.5703 7.86308 16.1462 8.40527 16.373 9.25027Z" fill="white"/>
<ellipse rx="2.56269" ry="2.90434" transform="matrix(-0.939586 0.342313 0.25928 0.965802 20.0258 7.63953)" fill="white"/>
<ellipse rx="2.09674" ry="2.37628" transform="matrix(-0.939586 0.342313 0.25928 0.965802 20.0258 7.63953)" fill="#111111"/>
<path d="M21.1888 7.49579C21.4156 8.34079 21.2075 9.16861 20.7239 9.34479C20.2403 9.52097 19.6644 8.97878 19.4376 8.13378C19.2107 7.28878 19.4189 6.46095 19.9024 6.28477C20.386 6.1086 20.9619 6.65078 21.1888 7.49579Z" fill="white"/>
</g>
<defs>
<clipPath id="clip0">
<rect width="36" height="36" fill="white"/>
</clipPath>
</defs>
</svg>
