<svg width="36" height="36" viewBox="0 0 36 36" fill="none" xmlns="http://www.w3.org/2000/svg">
<g clip-path="url(#clip0)">
<ellipse rx="16" ry="20.5" transform="matrix(-1 0 0 1 18 20.5)" fill="#111111"/>
<path d="M11.2154 7L11.7128 8.22415H13.3223L12.0202 8.98071L12.5176 10.2049L11.2154 9.4483L9.91321 10.2049L10.4106 8.98071L9.10843 8.22415H10.718L11.2154 7Z" fill="white" fill-opacity="0.85"/>
<path d="M31.2154 19L31.7128 20.2241H33.3223L32.0202 20.9807L32.5176 22.2049L31.2154 21.4483L29.9132 22.2049L30.4106 20.9807L29.1084 20.2241H30.718L31.2154 19Z" fill="white" fill-opacity="0.85"/>
<path d="M18.2154 2L18.7128 3.22415H20.3223L19.0202 3.98071L19.5176 5.20486L18.2154 4.4483L16.9132 5.20486L17.4106 3.98071L16.1084 3.22415H17.718L18.2154 2Z" fill="white" fill-opacity="0.85"/>
<path d="M14.1731 22.3801C14.1731 28.3078 8.93356 33.6126 12.201 33.6126C15.4684 33.6126 25.3481 28.3078 25.3481 22.3801C25.3481 16.4524 24.0141 13.8412 20.7466 13.8412C17.4792 13.8412 14.1731 16.4524 14.1731 22.3801Z" fill="#E8E8E8"/>
<path d="M9.8423 20.5587C7.73374 25.9092 1.74643 29.2337 4.54921 30.3383C7.352 31.4428 17.8835 29.9091 19.9921 24.5585C22.1006 19.2079 25.3154 15.5475 22.5127 14.443C19.7099 13.3384 11.9509 15.2081 9.8423 20.5587Z" fill="white" fill-opacity="0.95"/>
<path d="M23.6126 16.5995C22.5677 19.251 21.476 20.7701 20.4311 23.4216C19.3862 26.073 19.0445 26.4397 16.2072 28.3848C13.7743 30.0527 10.0078 30.4791 10.0078 30.4791" stroke="#686868" stroke-width="0.3"/>
<path d="M15.8989 32.0095V33.7907M15.8989 33.7907L13.8806 34.6813M15.8989 33.7907L18.9263 34.6813" stroke="#DDDDDD" stroke-width="0.5"/>
<path d="M16.908 32.0095V33.7907M16.908 33.7907L14.3393 34.6813M16.908 33.7907L20.7611 34.6813" stroke="#DDDDDD" stroke-width="0.5"/>
<path d="M29.9468 13.6985C31.0578 11.5092 28.7298 8.43549 25.4743 7.12579C22.2188 5.8161 18.0896 6.29206 16.9786 8.48141C16.4038 9.61403 16.1193 11.2123 16.2413 12.4239C16.2944 12.9512 15.7914 14.3293 16 14.5C16.2086 14.6707 17.7082 13.9844 18.259 13.8414L21.7025 14.5586L24.9578 16.5363C25.3193 17.0463 25.7182 18.4734 26 18.5C26.2818 18.5266 27.1669 17.3252 27.5709 16.9818C28.4991 16.1927 29.372 14.8311 29.9468 13.6985Z" fill="#E8E8E8"/>
<path d="M25.2353 7.5967L23.6311 9.21944L24.9279 9.74116L25.2353 7.5967Z" fill="white"/>
<ellipse rx="2.56269" ry="2.90434" transform="matrix(0.927739 0.373229 0.452519 -0.891755 25.8207 12.0849)" fill="white"/>
<ellipse rx="2.09674" ry="2.37628" transform="matrix(0.927739 0.373229 0.452519 -0.891755 25.8207 12.0849)" fill="#111111"/>
<path d="M25.117 12.7298C25.5129 11.9495 26.221 11.4728 26.6984 11.6649C27.1759 11.8569 27.242 12.6452 26.8461 13.4254C26.4502 14.2056 25.7422 14.6824 25.2647 14.4903C24.7872 14.2982 24.7211 13.51 25.117 12.7298Z" fill="white"/>
<ellipse rx="2.56269" ry="2.90434" transform="matrix(0.927739 0.373229 0.452519 -0.891755 21.0656 10.172)" fill="white"/>
<ellipse rx="2.09674" ry="2.37628" transform="matrix(0.927739 0.373229 0.452519 -0.891755 21.0656 10.172)" fill="#111111"/>
<path d="M20.52 10.5235C20.9159 9.74327 21.624 9.2665 22.1014 9.45859C22.5789 9.65068 22.645 10.4389 22.2491 11.2191C21.8532 11.9993 21.1452 12.4761 20.6677 12.284C20.1902 12.0919 20.1241 11.3037 20.52 10.5235Z" fill="white"/>
</g>
<defs>
<clipPath id="clip0">
<rect width="36" height="36" fill="white"/>
</clipPath>
</defs>
</svg>
